<svg width="163" height="31" viewBox="0 0 163 31" fill="none" xmlns="http://www.w3.org/2000/svg">
<g clip-path="url(#clip0_6_357)">
<path d="M73.3856 13.1937C73.3856 9.65005 71.2209 7.39032 67.5619 7.39032H61.0681V25.3654H65.4746V19.0741H67.5876C71.0921 19.0741 73.3856 16.686 73.3856 13.1937ZM66.9692 11.1651C68.1804 11.1651 68.8759 11.9868 68.8759 13.1937C68.8759 14.4263 68.2061 15.2994 66.9175 15.2994H65.4746V11.1651H66.9692Z" fill="#080B1D"/>
<path d="M74.4058 18.6632C74.4058 22.7205 77.4466 25.6992 81.7501 25.6992C86.0275 25.6992 89.1714 22.6691 89.1714 18.6119C89.1714 14.529 86.1049 11.5503 81.7501 11.5503C77.5755 11.5503 74.4058 14.5804 74.4058 18.6632ZM78.7093 18.6632C78.7093 16.686 79.9719 15.325 81.7501 15.325C83.5023 15.325 84.868 16.6346 84.868 18.6119C84.868 20.5378 83.528 21.9244 81.7501 21.9244C79.9978 21.9244 78.7093 20.6148 78.7093 18.6632Z" fill="#080B1D"/>
<path d="M95.2847 25.6992C98.3769 25.6992 100.799 24.0044 100.799 21.2568C100.799 16.3779 94.5631 17.3537 94.5631 15.6589C94.5631 15.248 94.9239 14.9912 95.5423 14.9912C96.599 14.9912 97.372 15.6332 97.7842 16.044L100.567 13.8613C99.7683 12.7828 98.2995 11.5503 95.7229 11.5503C92.7852 11.5503 90.5173 13.1167 90.5173 15.7102C90.5173 20.6148 96.7021 19.9472 96.7021 21.4879C96.7021 21.9758 96.3153 22.2326 95.4909 22.2326C94.1252 22.2326 93.2231 21.6933 92.5015 21.0514L90.0794 23.3881C90.8781 24.4666 92.7078 25.6992 95.2847 25.6992Z" fill="#080B1D"/>
<path d="M107.07 9.03378H102.766V11.8841H101.452V15.3507H102.766V20.1013C102.766 24.1071 104.622 25.5708 107.817 25.5708C108.899 25.5708 109.466 25.4167 109.466 25.4167V21.7447C109.183 21.7704 108.976 21.7704 108.745 21.7704C107.868 21.7704 107.07 21.4879 107.07 20.3067V15.3507H109.363V11.8841H107.07V9.03378Z" fill="#080B1D"/>
<path d="M124.143 13.1937C124.143 9.65005 121.979 7.39032 118.319 7.39032H111.826V25.3654H116.232V19.0741H118.345C121.85 19.0741 124.143 16.686 124.143 13.1937ZM117.727 11.1651C118.938 11.1651 119.634 11.9868 119.634 13.1937C119.634 14.4263 118.964 15.2994 117.675 15.2994H116.232V11.1651H117.727Z" fill="#080B1D"/>
<path d="M130.163 11.8841H125.859V25.3654H130.163V11.8841ZM127.972 11.0624C129.338 11.0624 130.395 10.0866 130.395 8.75131C130.395 7.39032 129.338 6.41454 127.972 6.41454C126.606 6.41454 125.576 7.39032 125.576 8.75131C125.576 10.0866 126.606 11.0624 127.972 11.0624Z" fill="#080B1D"/>
<path d="M132.629 25.3654H136.932V6.79973H132.629V25.3654Z" fill="#080B1D"/>
<path d="M138.702 18.6632C138.702 22.7205 141.743 25.6992 146.046 25.6992C150.324 25.6992 153.468 22.6691 153.468 18.6119C153.468 14.529 150.401 11.5503 146.046 11.5503C141.872 11.5503 138.702 14.5804 138.702 18.6632ZM143.006 18.6632C143.006 16.686 144.268 15.325 146.046 15.325C147.799 15.325 149.164 16.6346 149.164 18.6119C149.164 20.5378 147.824 21.9244 146.046 21.9244C144.294 21.9244 143.006 20.6148 143.006 18.6632Z" fill="#080B1D"/>
<path d="M159.916 9.03378H155.613V11.8841H154.298V15.3507H155.613V20.1013C155.613 24.1071 157.468 25.5708 160.663 25.5708C161.745 25.5708 162.313 25.4167 162.313 25.4167V21.7447C162.029 21.7704 161.823 21.7704 161.591 21.7704C160.715 21.7704 159.916 21.4879 159.916 20.3067V15.3507H162.209V11.8841H159.916V9.03378Z" fill="#080B1D"/>
<path fill-rule="evenodd" clip-rule="evenodd" d="M1.18876 2.59594C0.728147 2.07774 1.09601 1.25858 1.78933 1.25858H45.9583C49.8275 1.25858 52.9642 4.3952 52.9642 8.26442V23.9575C52.9642 27.8266 49.8275 30.9633 45.9583 30.9633H24.2626C23.268 30.9633 22.3209 30.538 21.6601 29.7947L19.404 27.2565C18.9434 26.7383 19.3112 25.9192 20.0045 25.9192H45.9583C47.0417 25.9192 47.92 25.0409 47.92 23.9575V8.26442C47.92 7.18106 47.0417 6.3028 45.9583 6.3028H6.04737C5.05279 6.3028 4.1057 5.87747 3.44493 5.13412L1.18876 2.59594Z" fill="#02A99B"/>
<path fill-rule="evenodd" clip-rule="evenodd" d="M20.3251 1.0577L33.2427 15.1005C33.5735 15.4603 34.1405 15.4629 34.4748 15.1062L45.842 2.97501L49.5227 6.424L38.1558 18.5552C35.8159 21.0523 31.847 21.034 29.5302 18.5155L16.6126 4.47266L20.3251 1.0577Z" fill="#02A99B"/>
<path fill-rule="evenodd" clip-rule="evenodd" d="M11.0092 15.4892C10.5454 14.9717 10.9126 14.1493 11.6075 14.1493H19.6784C20.418 14.1493 21.0176 14.7489 21.0176 15.4886V17.8543C21.0176 18.594 20.418 19.1935 19.6784 19.1935H15.2865C14.6775 19.1935 14.0973 18.9345 13.6909 18.481L11.0092 15.4892Z" fill="#02A99B"/>
</g>
<defs>
<clipPath id="clip0_6_357">
<rect width="162.312" height="29.9984" fill="white" transform="translate(0 0.975174)"/>
</clipPath>
</defs>
</svg>
